<?xml version="1.0" encoding="utf-8"?>
<!-- Generator: Adobe Illustrator 16.0.0, SVG Export Plug-In . SVG Version: 6.00 Build 0)  -->
<!DOCTYPE svg PUBLIC "-//W3C//DTD SVG 1.1//EN" "http://www.w3.org/Graphics/SVG/1.1/DTD/svg11.dtd">
<svg version="1.1" id="Layer_1" xmlns="http://www.w3.org/2000/svg" xmlns:xlink="http://www.w3.org/1999/xlink" x="0px" y="0px"
	 width="21.01px" height="21.001px" viewBox="0 0 21.01 21.001" enable-background="new 0 0 21.01 21.001" xml:space="preserve">
<path d="M10.504,5.834L10.504,5.834l0.001,2.332l5.641-4.083L10.505,0v2.334l0,0C6.11,2.332,2.401,5.146,1.207,9.001l3.384,1.385
	C5.198,7.781,7.614,5.834,10.504,5.834z M10.506,17.501c-2.244-0.001-4.197-1.178-5.245-2.921l2.093-1.161l-6.499-2.66L0,17.498
	l2.11-1.17c1.678,2.79,4.806,4.673,8.396,4.674c0.775,0,1.524-0.097,2.247-0.261l-0.443-3.502
	C11.739,17.409,11.134,17.501,10.506,17.501z M18.896,16.327c0.828-1.372,1.312-2.959,1.312-4.66c0-2.484-1.017-4.735-2.661-6.408
	l-2.936,2.125c1.201,1.066,1.958,2.588,1.957,4.284c0.001,1.063-0.298,2.058-0.814,2.915l-2.099-1.166l0.856,6.739L21.01,17.5
	L18.896,16.327z"/>
</svg>
