<?xml version="1.0" encoding="utf-8"?>
<!-- Generator: Adobe Illustrator 16.0.0, SVG Export Plug-In . SVG Version: 6.00 Build 0)  -->
<!DOCTYPE svg PUBLIC "-//W3C//DTD SVG 1.1//EN" "http://www.w3.org/Graphics/SVG/1.1/DTD/svg11.dtd">
<svg version="1.1" id="Isolation_Mode" xmlns="http://www.w3.org/2000/svg" xmlns:xlink="http://www.w3.org/1999/xlink" x="0px"
	 y="0px" width="12.03px" height="12.03px" viewBox="0 0 12.03 12.03" enable-background="new 0 0 12.03 12.03"
	 xml:space="preserve">
<path fill-rule="evenodd" clip-rule="evenodd" fill="#231F20" d="M6.01,0C2.69,0,0,2.7,0,6.02s2.69,6.01,6.01,6.01
	c3.32,0,6.021-2.69,6.021-6.01S9.33,0,6.01,0z M6.01,2.09c0.7,0,1.36,0.18,1.93,0.49L2.56,7.97C2.23,7.4,2.04,6.74,2.04,6.03
	C2.04,3.85,3.82,2.09,6.01,2.09z M6.01,9.97c-0.71,0-1.37-0.18-1.95-0.5l5.4-5.4C9.8,4.65,9.99,5.31,9.99,6.03
	C9.99,8.21,8.21,9.97,6.01,9.97z"/>
</svg>
