<svg xmlns="http://www.w3.org/2000/svg" width="21.01" height="21.001" viewBox="0 0 21.01 21.001"><path d="M10.504 5.834v2.332l5.642-4.083L10.506 0v2.334C6.11 2.332 2.4 5.146 1.205 9l3.385 1.386C5.2 7.78 7.615 5.834 10.505 5.834zm.002 11.667c-2.244 0-4.197-1.177-5.245-2.92l2.094-1.16-6.5-2.66L0 17.497l2.11-1.17c1.678 2.79 4.806 4.673 8.396 4.674.775 0 1.524-.097 2.247-.26l-.443-3.503a6.31 6.31 0 0 1-1.804.26zm8.39-1.173a8.98 8.98 0 0 0 1.312-4.66c0-2.484-1.017-4.735-2.66-6.408L14.61 7.383c1.202 1.066 1.96 2.588 1.958 4.284a5.62 5.62 0 0 1-.814 2.915l-2.1-1.166.857 6.74 6.5-2.657-2.114-1.173z"/></svg>